<svg width="500" height="500" viewBox="0 0 500 500" fill="none" xmlns="http://www.w3.org/2000/svg">
  <g clip-path="url(#clip0_19_2257)">
    <path fill-rule="evenodd" clip-rule="evenodd" d="M118.711 321.016H240.242V447.719C225.641 447.719 211 447.703 196.352 447.734C176.023 447.766 155.656 448.297 135.359 447.766C112.875 447.172 95.9062 436.641 85.3984 416.641C64.5234 377.008 44.0312 337.211 23.0391 297.656C12.875 278.547 13.4141 260.805 26.0703 242.891C33.8828 231.844 40.2656 219.797 48.0078 207C32.4062 197.469 16.9453 188.055 0 177.711C3.3125 177.086 5.02344 176.492 6.74219 176.461C45.9609 176 85.2578 175.422 124.398 175.516C128.867 175.531 135.258 178.258 137.484 181.773C161.305 219.391 184.438 257.414 207.742 295.328C207.953 295.727 207.773 296.359 207.773 298.477L152.031 264.852L118.672 320.992M229.672 332.719C228.375 332.312 227.555 331.828 226.727 331.828C190.148 331.734 153.609 331.617 117.039 331.891C114.531 331.922 111.227 334.445 109.766 336.758C104.719 344.687 100.438 353.102 95.6484 361.219C75.8828 394.617 97.4297 435.18 136.289 437.047C151.289 437.781 166.32 437.336 181.336 437.367C197.43 437.414 213.516 437.367 229.672 437.367V332.719Z" fill="#009345"/>
    <path fill-rule="evenodd" clip-rule="evenodd" d="M89.1875 355.078C89.1875 355.078 118.594 361.266 118.992 361.648C119.391 362.047 132.805 401.664 133.078 402.336C133.352 402.984 118.992 442.984 118.992 442.984L87.7422 411.734L76.4688 368.406L89.2187 355.109" fill="#009345"/>
    <path fill-rule="evenodd" clip-rule="evenodd" d="M239.742 322.187V447.812C222.688 447.812 205.664 447.828 188.61 447.797C172.758 447.766 156.875 448.312 141.024 447.43C99.9455 445.18 77.1877 396.469 98.0705 356.375C103.133 346.641 107.656 336.523 113.016 327C114.547 324.242 118.055 321.187 120.664 321.156C159.321 320.82 197.969 320.992 236.61 321.156C237.485 321.156 238.36 321.758 239.742 322.242" fill="#076735"/>
    <path fill-rule="evenodd" clip-rule="evenodd" d="M259.609 89.6719C240.227 126.484 221.742 161.555 202.977 197.172C165.367 177.359 128.641 158.031 90.8672 138.125C97.6719 125.211 104.516 112.273 111.313 99.3125C120.75 81.2969 129.766 63.0391 139.703 45.3047C150.703 25.7109 167.922 15.625 190.516 15.625C235.289 15.625 280.094 16.0547 324.867 15.8984C346.508 15.8906 361.961 24.5547 371.898 44.1016C378.016 56.1641 385.734 67.4063 393.43 80.2344C409.133 70.8594 424.648 61.5781 441.734 51.3906C440.734 54.6172 440.461 56.4141 439.664 57.9297C421.773 92.8594 404.031 127.852 385.672 162.508C383.586 166.461 378.219 170.844 374.031 171.18C329.672 174.711 285.25 177.477 240.828 180.43C240.383 180.43 239.93 179.969 238.062 178.969L293.773 145.313C282.617 127.125 271.617 109.219 259.633 89.6719M197.523 182.414C198.5 181.453 199.32 180.953 199.719 180.227C216.805 147.914 233.945 115.625 250.758 83.1328C251.898 80.9453 251.203 76.8203 249.828 74.4609C245.172 66.2734 239.711 58.5781 234.75 50.5391C214.422 17.5 168.492 17.6641 148.734 51.1641C141.094 64.0781 134.508 77.6016 127.484 90.875C119.938 105.102 112.469 119.367 104.953 133.641C136.703 150.375 167.148 166.406 197.547 182.414" fill="#009345"/>
    <path fill-rule="evenodd" clip-rule="evenodd" d="M243.203 47.6484C243.203 47.6484 224.031 70.7734 223.5 70.9531C222.953 71.1172 181.648 64.5625 180.945 64.4688C180.219 64.3984 151.508 33.0625 151.508 33.0625L193.773 19.9766L237.391 30.2031L243.203 47.6641" fill="#009345"/>
    <path fill-rule="evenodd" clip-rule="evenodd" d="M202.117 196.172C165.633 176.961 129.086 157.695 90.9375 137.617C98.9141 122.539 106.82 107.477 114.773 92.4141C122.219 78.3828 129.117 64.0703 137.273 50.4687C158.422 15.1875 212.141 17.7266 237.867 54.8984C244.102 63.9219 250.984 72.625 256.914 81.7969C258.617 84.4609 259.688 88.9609 258.484 91.3047C240.758 125.648 222.625 159.773 204.539 193.883C204.125 194.664 203.211 195.164 202.117 196.148" fill="#076735"/>
    <path fill-rule="evenodd" clip-rule="evenodd" d="M391.172 324.469L329.492 219.75C366.149 198.18 401.914 177.117 438.695 155.461C446.11 168.039 453.508 180.656 460.945 193.281C471.305 210.758 482.094 228.062 491.953 245.813C502.82 265.484 502.359 285.43 490.477 304.656C466.883 342.742 443 380.609 419.617 418.773C408.313 437.227 392.734 445.766 370.891 443.906C357.422 442.781 343.805 443.422 328.836 443.242L327.984 499.469C325.75 496.961 324.352 495.75 323.484 494.266C303.188 460.703 282.774 427.188 262.93 393.336C260.68 389.477 259.805 382.594 261.719 378.883C282.016 339.297 303.055 300.055 323.883 260.758C324.11 260.391 324.742 260.227 326.594 259.141C326.383 280.969 326.149 302.023 325.922 324.227C347.234 324.336 368.266 324.398 391.203 324.5M344.985 222.859C345.274 224.195 345.274 225.141 345.68 225.867C364.18 257.43 382.625 288.992 401.43 320.32C402.688 322.445 406.57 324.039 409.32 324.125C418.735 324.461 428.172 323.852 437.586 323.883C476.383 323.977 500.399 284.82 482.32 250.367C475.328 237.086 467.281 224.352 459.703 211.406C451.563 197.516 443.367 183.641 435.18 169.734C404.266 187.953 374.609 205.398 345.024 222.836" fill="#009345"/>
    <path fill-rule="evenodd" clip-rule="evenodd" d="M435.531 332.617C435.531 332.617 425.938 304.164 426.063 303.609C426.219 303.062 453.531 271.398 453.985 270.82C454.391 270.242 496.164 262.312 496.164 262.312L485.094 305.141L453.43 336.867L435.531 332.617Z" fill="#009345"/>
    <path fill-rule="evenodd" clip-rule="evenodd" d="M330.781 219.609L439.055 155.852C447.711 170.547 456.391 185.211 464.977 199.914C472.992 213.602 481.531 227.008 488.805 241.094C507.688 277.656 477.289 321.984 432.133 324.328C421.18 324.898 410.164 326.133 399.258 326.367C396.078 326.375 391.664 324.961 390.336 322.695C370.453 289.562 350.961 256.195 331.445 222.836C331.008 222.094 331.07 221.031 330.781 219.609Z" fill="#076735"/>
  </g>
  <defs>
    <clipPath id="clip0_19_2257">
      <rect width="500" height="500" fill="white"/>
    </clipPath>
  </defs>
</svg>
